<svg width="86" height="62" viewBox="0 0 86 62" fill="none" xmlns="http://www.w3.org/2000/svg">
  <style>.icon{display:none}.icon:target{display:block}</style>
  <g id="icon_language">
    <path class="icon" id="frame_m" d="M1 57.6645V6.96468C8.95291 6.96468 18.8044 8.90063 30.4258 8.13354C45.7115 7.12458 60.6469 1 69.5939 1C76.7515 1 82.5174 2.98823 84.5056 3.98234V57.6645C79.535 56.6704 71.8494 55.1842 63.6292 54.6822C44.8843 53.5374 34.5551 62.9067 15.9117 60.6468C10.0162 59.9322 2.98823 58.6586 1 57.6645Z" stroke="#1D1D1B" stroke-linejoin="round"/>
    <path class="icon" id="frame_m_focus_hover" d="M1 57.6645V6.96468C8.95291 6.96468 18.8044 8.90063 30.4258 8.13354C45.7115 7.12458 60.6469 1 69.5939 1C76.7515 1 82.5174 2.98823 84.5056 3.98234V57.6645C79.535 56.6704 71.8494 55.1842 63.6292 54.6822C44.8843 53.5374 34.5551 62.9067 15.9117 60.6468C10.0162 59.9322 2.98823 58.6586 1 57.6645Z" stroke="#60212E" stroke-linejoin="round"/>
    <path class="icon" id="frame_s" d="M8 53.2204V10.9706C14.6274 10.9706 22.837 12.5839 32.5215 11.9446C45.2596 11.1038 57.7057 6 65.1616 6C71.1263 6 75.9311 7.65686 77.588 8.48529V53.2204C73.4458 52.392 67.0412 51.1535 60.191 50.7351C44.5702 49.7812 35.9626 57.5889 20.4264 55.7057C15.5135 55.1102 9.65686 54.0488 8 53.2204Z" stroke="#1D1D1B" stroke-linejoin="round"/>
    <path class="icon" id="frame_s_focus_hover" d="M8 53.2204V10.9706C14.6274 10.9706 22.837 12.5839 32.5215 11.9446C45.2596 11.1038 57.7057 6 65.1616 6C71.1263 6 75.9311 7.65686 77.588 8.48529V53.2204C73.4458 52.392 67.0412 51.1535 60.191 50.7351C44.5702 49.7812 35.9626 57.5889 20.4264 55.7057C15.5135 55.1102 9.65686 54.0488 8 53.2204Z" stroke="#60212E" stroke-linejoin="round"/>
  </g>
</svg>
