<svg width="40" height="42" viewBox="0 0 40 42" fill="none" xmlns="http://www.w3.org/2000/svg">
  <g id="icon_scroll">
    <path id="Vector" d="M36.6411 17.2935C37.8644 18.5167 37.8644 20.5001 36.6411 21.7233C35.4179 22.9466 33.4345 22.9466 32.2113 21.7233L19.5101 9.02213L6.80889 21.7233C5.58562 22.9466 3.6023 22.9466 2.37903 21.7233C1.15575 20.5001 1.15575 18.5167 2.37903 17.2935L17.2952 2.37734C18.5184 1.15406 20.5017 1.15406 21.725 2.37734L36.6411 17.2935ZM36.6411 35.1928C37.8644 36.4161 37.8644 38.3994 36.6411 39.6227C35.4179 40.8459 33.4345 40.8459 32.2113 39.6227L19.5101 26.9215L6.80889 39.6227C5.58562 40.8459 3.6023 40.8459 2.37903 39.6227C1.15575 38.3994 1.15575 36.4161 2.37903 35.1928L17.2952 20.2767C18.5184 19.0534 20.5017 19.0534 21.725 20.2767L36.6411 35.1928Z" fill="#D8E63C"/>
  </g>
</svg>
